<svg xmlns="http://www.w3.org/2000/svg" viewBox="0 0 986 769" preserveAspectRatio="xMidYMid meet">
<g transform="translate(0,769) scale(0.1,-0.1)" fill="#1a1d2e" stroke="none">
<path d="M9459 7647 c-46 -24 -100 -53 -119 -64
-37 -21 -145 -79 -270 -146 -41 -22 -79 -43 -85 -47 -5 -4 -55 -31 -110 -60
-120 -63 -321 -171 -465 -250 -58 -32 -136 -74 -175 -95 -38 -21 -92 -50 -120
-65 -75 -41 -170 -92 -270 -145 -49 -27 -106 -57 -125 -68 -72 -41 -118 -66
-222 -121 -59 -31 -125 -66 -145 -77 -80 -45 -389 -213 -410 -223 -50 -24 -40
-34 137 -137 114 -66 116 -67 288 -171 156 -95 187 -108 208 -89 5 4 45 28 89
51 44 24 94 51 111 61 17 9 75 40 130 69 54 29 104 56 109 60 6 4 45 26 88 49
126 67 230 123 266 143 18 11 36 17 38 14 3 -3 -6 -24 -19 -48 -14 -24 -41
-72 -60 -108 -97 -179 -112 -206 -291 -520 -134 -236 -297 -508 -435 -730 -95
-153 -439 -668 -524 -786 -40 -56 -107 -148 -148 -205 -41 -57 -79 -107 -85
-111 -14 -11 -25 -10 -25 1 0 9 -103 257 -140 338 -11 24 -20 45 -20 48 0 2
-13 34 -30 70 -16 36 -30 68 -30 70 0 2 -12 30 -26 62 -14 32 -33 74 -42 93
-28 63 -118 252 -187 394 -245 499 -504 876 -735 1070 -207 173 -371 252 -580
277 -122 15 -254 0 -384 -42 -279 -92 -548 -332 -799 -716 -143 -220 -196
-314 -336 -598 -100 -202 -124 -254 -188 -400 -20 -44 -44 -99 -54 -122 -11
-24 -27 -62 -38 -85 -10 -24 -55 -128 -99 -233 -44 -104 -119 -281 -166 -393
-47 -112 -86 -205 -86 -207 0 -3 -11 -28 -24 -57 -13 -29 -47 -109 -76 -178
-238 -570 -552 -1173 -763 -1465 -132 -182 -199 -272 -224 -300 -10 -11 -49
-56 -88 -100 -181 -205 -441 -428 -616 -528 -334 -191 -635 -278 -1034 -299
l-50 -3 -3 -263 -2 -262 1037 3 c680 3 1055 7 1088 14 47 10 87 18 218 43 28
5 70 14 92 19 22 5 65 14 95 21 30 7 71 16 90 21 19 4 53 12 75 18 45 11 184
48 230 61 17 5 46 13 65 18 169 46 628 213 855 312 818 357 1541 835 2230
1475 457 425 915 937 1310 1465 305 407 701 1002 957 1435 36 61 102 170 147
244 44 73 81 135 81 137 0 3 20 37 44 77 24 39 114 196 200 347 87 151 161
279 165 283 10 10 18 -87 31 -368 22 -466 30 -596 35 -605 4 -6 21 -17 38 -26
38 -20 306 -176 360 -211 21 -13 52 -32 70 -42 18 -10 63 -37 101 -61 41 -25
72 -38 77 -33 6 6 6 83 0 194 -10 179 -20 389 -41 844 -6 121 -15 301 -20 400
-5 99 -14 279 -20 400 -6 121 -15 321 -21 445 -5 124 -14 300 -19 392 -6 91
-10 206 -10 255 0 48 -4 94 -9 101 -6 10 -27 3 -92 -31z"/>
<path fill="#ffffff" d="M5056 5575 c154 -75 319 -261 513 -578
57 -94 217 -405 291 -566 79 -174 316 -727 390 -911 33 -80 72 -176 89 -214
23 -56 27 -73 18 -87 -12 -16 -134 -151 -272 -299 -128 -138 -379 -384 -525
-514 -80 -71 -161 -143 -180 -161 -126 -114 -540 -422 -745 -554 -237 -153
-236 -153 -355 -219 -25 -13 -70 -39 -100 -56 -87 -50 -364 -189 -490 -246
-249 -112 -677 -275 -847 -321 -18 -5 -49 -13 -68 -19 -19 -5 -50 -14 -67 -19
-161 -46 -290 -76 -528 -124 -232 -46 -260 -51 -260 -39 0 5 39 44 86 88 77
70 267 281 365 404 156 197 373 529 499 765 29 55 69 129 88 165 43 80 135
265 172 345 15 33 42 90 59 128 76 165 91 198 91 201 0 2 15 37 34 78 19 40
55 123 80 183 26 61 51 119 56 130 10 20 147 349 250 600 109 265 142 341 268
615 264 576 447 884 641 1079 171 170 307 214 447 146z"/>
<path d="M7179 2673 c-94 -112 -218 -251 -299
-336 -30 -32 -58 -64 -62 -71 -10 -17 142 -316 261 -515 354 -589 742 -1039
1151 -1331 252 -180 445 -283 720 -382 30 -11 65 -24 78 -29 13 -5 205 -9 428
-9 l404 0 -2 263 -3 262 -45 2 c-580 28 -1057 239 -1490 657 -343 332 -635
762 -961 1419 -46 92 -87 167 -90 167 -4 0 -44 -44 -90 -97z"/>
</g>
</svg>
