<?xml version="1.0" standalone="no"?>
<!DOCTYPE svg PUBLIC "-//W3C//DTD SVG 20010904//EN"
 "http://www.w3.org/TR/2001/REC-SVG-20010904/DTD/svg10.dtd">
<svg version="1.0" xmlns="http://www.w3.org/2000/svg"
 width="1557.000000pt" height="1557.000000pt" viewBox="0 0 1557.000000 1557.000000"
 preserveAspectRatio="xMidYMid meet">
<metadata>
Created by potrace 1.16, written by Peter Selinger 2001-2019
</metadata>
<g transform="translate(0.000000,1557.000000) scale(0.100000,-0.100000)"
fill="#000000" stroke="none">
<path d="M12335 14222 c-27 -16 -86 -48 -130 -72 -44 -24 -98 -53 -120 -65
-22 -12 -80 -44 -130 -70 -49 -26 -128 -69 -175 -95 -47 -26 -130 -71 -185
-100 -55 -29 -122 -65 -150 -80 -27 -15 -79 -43 -115 -62 -36 -19 -81 -44
-100 -55 -19 -11 -70 -38 -112 -61 -43 -23 -113 -61 -155 -84 -43 -23 -92 -49
-109 -59 -17 -9 -75 -40 -130 -69 -54 -29 -103 -56 -109 -60 -5 -4 -89 -49
-185 -100 -173 -92 -196 -104 -359 -194 -46 -25 -85 -46 -86 -46 -2 0 -41 -22
-87 -48 -46 -26 -91 -51 -101 -55 -10 -4 -17 -12 -15 -19 3 -8 345 -218 600
-368 13 -7 31 -2 75 22 32 17 63 34 68 38 6 4 60 34 120 65 61 32 139 75 175
95 36 20 130 72 210 115 80 43 163 88 186 100 59 33 68 20 30 -45 -18 -30 -59
-104 -91 -165 -167 -314 -623 -1090 -782 -1330 -169 -256 -323 -486 -364 -545
-141 -202 -311 -430 -320 -430 -11 0 -10 -3 -129 280 -177 419 -398 891 -513
1095 -235 416 -437 674 -662 845 -94 72 -247 156 -325 179 -25 7 -63 18 -85
24 -59 18 -327 14 -395 -5 -160 -45 -243 -87 -395 -201 -271 -202 -522 -549
-796 -1102 -156 -313 -234 -490 -529 -1190 -341 -810 -365 -863 -529 -1195
-255 -516 -514 -915 -798 -1225 -163 -178 -329 -323 -512 -446 -192 -128 -469
-245 -711 -300 -82 -18 -337 -48 -422 -49 l-28 0 0 -309 c0 -221 3 -312 11
-317 7 -4 179 -7 383 -7 350 0 682 12 896 33 246 23 405 41 530 59 208 30 268
40 375 60 33 7 80 16 105 20 254 48 580 131 825 211 165 54 419 144 480 169
11 5 36 15 55 22 33 12 53 20 185 79 28 12 66 29 85 37 128 56 500 245 630
320 187 109 388 233 491 305 42 29 119 82 170 117 91 62 117 82 314 235 628
487 1338 1235 1905 2007 194 265 432 613 575 839 54 85 124 196 155 245 126
197 465 771 704 1193 54 94 101 172 106 172 11 0 19 -90 30 -335 21 -450 30
-631 35 -645 3 -8 26 -26 52 -40 27 -14 86 -48 133 -76 47 -28 165 -99 263
-157 98 -59 183 -107 188 -107 6 0 8 17 4 43 -3 23 -10 150 -15 282 -6 132
-14 330 -20 440 -5 110 -14 295 -20 410 -5 116 -14 298 -20 405 -6 107 -15
294 -20 415 -5 121 -14 308 -19 415 -6 107 -13 263 -16 345 -7 188 -15 275
-23 275 -4 0 -29 -13 -57 -28z m-4489 -2046 c29 -7 76 -27 105 -42 105 -57
308 -284 422 -474 22 -36 47 -76 57 -90 37 -54 219 -408 290 -565 94 -206 342
-783 420 -979 28 -71 60 -146 71 -168 11 -22 19 -46 17 -53 -5 -23 -355 -399
-539 -580 -275 -269 -535 -494 -828 -712 -69 -52 -134 -100 -143 -108 -25 -21
-215 -147 -288 -192 -36 -22 -101 -62 -145 -90 -133 -83 -309 -179 -525 -286
-196 -97 -234 -115 -325 -152 -22 -10 -56 -24 -75 -32 -19 -8 -44 -18 -55 -23
-11 -4 -33 -13 -50 -20 -32 -14 -34 -14 -140 -55 -74 -29 -422 -145 -490 -163
-22 -7 -71 -20 -110 -31 -135 -37 -323 -81 -496 -115 -231 -45 -259 -50 -259
-39 0 6 57 66 126 134 314 310 607 717 874 1214 207 386 356 715 712 1570 189
454 234 559 320 745 22 47 54 117 71 155 39 87 198 404 233 465 152 266 240
388 373 520 101 100 171 146 256 166 65 16 62 16 121 0z M10100 9312 c-140
-167 -253 -295 -327 -373 -51 -53 -93 -104 -93 -114 0 -24 178 -366 263 -505
22 -36 52 -86 68 -112 15 -25 65 -102 110 -170 73 -109 111 -162 192 -272 116
-158 370 -431 547 -590 64 -57 243 -194 330 -253 238 -159 486 -274 785 -362
176 -52 424 -90 605 -94 l125 -2 3 313 2 312 -47 0 c-58 0 -278 25 -348 39
-643 129 -1180 531 -1652 1236 -153 228 -271 438 -440 778 -52 103 -97 187
-101 187 -4 0 -14 -8 -22 -18z M1940 4475 l0 -1076 128 3 127 3 3 108 c2 69 7
107 14 107 6 0 34 -24 62 -52 67 -68 159 -122 266 -155 76 -24 100 -27 230
-26 140 0 198 9 285 43 233 90 390 273 451 527 20 83 23 304 5 383 -57 247
-177 412 -381 523 -126 69 -185 82 -365 82 -141 0 -168 -3 -230 -23 -75 -25
-171 -73 -202 -100 -85 -76 -104 -92 -113 -92 -6 0 -10 144 -10 410 l0 410
-135 0 -135 0 0 -1075z m923 219 c90 -23 154 -59 217 -123 112 -112 160 -233
160 -401 0 -168 -37 -280 -126 -379 -219 -243 -625 -219 -802 48 -55 82 -66
109 -88 211 -52 243 51 487 251 597 110 60 265 79 388 47z M11464 5373 c-20
-43 -41 -91 -49 -108 -47 -107 -70 -160 -170 -380 -43 -93 -114 -253 -160
-355 -77 -172 -320 -713 -448 -997 -31 -68 -52 -125 -48 -128 5 -2 115 -5 247
-5 217 -1 239 0 251 16 7 10 13 23 13 30 0 12 81 211 135 332 l24 52 488 -2
488 -3 15 -30 c8 -16 49 -111 91 -210 l77 -180 256 -3 c141 -1 256 1 256 6 0
5 -9 26 -19 48 -10 21 -32 68 -49 104 -43 95 -85 185 -125 271 -19 42 -50 110
-67 150 -18 41 -57 125 -86 188 -30 62 -54 115 -54 116 0 2 -21 47 -46 102
-25 54 -52 112 -59 128 -8 17 -32 70 -54 118 -23 49 -41 90 -41 92 0 2 -22 51
-50 110 -27 59 -50 108 -50 110 0 2 -20 45 -44 97 -24 51 -58 127 -76 168 -18
41 -50 112 -71 158 l-38 82 -251 0 -251 0 -35 -77z m335 -508 c21 -50 62 -146
91 -215 29 -69 61 -143 71 -166 10 -22 28 -65 39 -95 12 -29 32 -77 46 -107
41 -89 65 -82 -294 -82 -175 0 -321 3 -324 6 -7 6 77 216 192 479 45 105 91
209 101 233 11 24 24 42 30 40 5 -2 27 -44 48 -93z M13159 5363 c0 -49 0 -509
0 -1023 l-1 -935 236 -3 236 -2 5 22 c3 13 4 473 3 1023 l-3 1000 -237 3 -238
2 -1 -87z M7035 5290 l-130 -5 -3 -177 -2 -177 -127 -3 -127 -3 3 -105 c1 -58
5 -108 7 -112 3 -5 59 -8 125 -8 l119 0 0 -362 c1 -396 11 -593 35 -664 38
-113 96 -186 182 -231 90 -47 145 -58 283 -58 103 0 137 4 195 24 79 26 125
55 125 78 0 22 -61 176 -73 184 -5 4 -30 -4 -56 -17 -135 -70 -290 -46 -358
55 -46 68 -48 91 -48 551 l0 435 220 5 c121 4 221 7 223 8 1 1 1 50 0 110 l-3
107 -209 3 c-134 1 -214 6 -223 13 -10 9 -13 52 -13 180 0 92 -3 169 -7 171
-5 2 -66 1 -138 -2z M5737 5283 c-4 -3 -7 -84 -7 -179 l0 -173 -127 -3 -128
-3 -3 -104 c-2 -77 1 -107 10 -113 7 -4 65 -8 130 -8 l116 0 5 -472 c4 -501 5
-507 55 -621 40 -90 143 -168 272 -208 58 -18 260 -18 320 0 80 24 153 56 163
72 7 12 0 41 -28 112 -20 54 -38 97 -40 97 -2 0 -25 -11 -52 -24 -175 -88
-352 -32 -398 127 -13 45 -15 120 -13 482 l3 430 220 5 c121 3 219 8 218 13
-2 4 -3 54 -3 112 l0 105 -217 2 -218 3 -3 178 -2 177 -134 0 c-73 0 -136 -3
-139 -7z M4465 4949 c-194 -22 -334 -88 -466 -218 -87 -86 -145 -182 -185
-306 -36 -109 -45 -314 -19 -431 33 -151 100 -276 207 -383 108 -110 193 -156
378 -208 40 -12 102 -16 225 -16 167 0 183 2 311 41 83 26 191 92 262 161 l43
42 -23 28 c-84 104 -124 150 -132 150 -4 1 -16 -10 -27 -23 -27 -35 -135 -101
-214 -132 -63 -25 -83 -28 -200 -28 -111 -1 -140 2 -200 22 -167 56 -306 197
-353 358 -24 82 -86 74 613 74 l625 0 0 111 c0 136 -25 250 -81 364 -51 105
-95 163 -173 227 -120 99 -247 150 -419 168 -54 5 -100 9 -101 9 0 -1 -32 -5
-71 -10z m196 -239 c186 -35 347 -199 374 -383 7 -43 5 -47 -17 -52 -34 -9
-945 -1 -954 8 -11 11 14 103 48 174 56 117 199 227 328 252 63 12 158 13 221
1z M8555 4949 c-262 -30 -485 -180 -598 -404 -66 -131 -97 -322 -78 -471 32
-243 142 -430 326 -553 97 -65 143 -85 280 -122 68 -18 353 -19 420 0 159 43
239 80 324 151 93 77 93 78 19 163 -35 39 -69 78 -75 85 -11 11 -23 5 -70 -36
-116 -100 -223 -137 -398 -137 -99 0 -132 4 -187 23 -145 50 -264 154 -322
282 -33 73 -48 140 -33 146 7 2 289 5 627 7 l615 2 3 75 c7 169 -45 354 -138
490 -149 217 -422 331 -715 299z m273 -258 c143 -53 245 -160 286 -300 24 -81
21 -109 -10 -117 -29 -7 -934 3 -942 11 -10 10 20 117 50 173 74 142 184 222
348 256 53 10 215 -3 268 -23z M10455 4940 c-119 -18 -242 -79 -313 -154 -27
-28 -53 -60 -59 -70 -22 -40 -33 -6 -33 105 l0 110 -131 -3 -131 -3 -1 -760
-2 -760 138 0 137 0 4 405 c2 338 6 418 20 485 36 163 123 289 239 344 68 32
183 55 249 49 l43 -3 3 133 3 132 -58 -1 c-32 -1 -80 -5 -108 -9z M4690 2740
c-5 -3 -11 -21 -14 -40 -3 -19 -12 -78 -21 -130 -23 -144 -27 -154 -61 -161
-16 -4 -48 -7 -72 -8 l-43 -1 3 -62 3 -63 53 -3 c48 -3 52 -5 52 -28 0 -28
-29 -156 -61 -274 l-21 -74 34 -28 c18 -14 71 -58 118 -95 52 -42 86 -77 88
-91 3 -16 -22 -47 -100 -125 -57 -57 -118 -112 -135 -122 -18 -11 -33 -22 -33
-25 0 -9 81 -100 90 -100 19 0 175 137 226 198 30 37 60 70 68 74 9 5 37 -17
86 -67 39 -41 77 -75 84 -75 6 1 28 22 48 47 45 57 45 57 -64 169 l-79 81 22
54 c50 126 70 210 94 388 13 103 22 121 57 121 18 0 32 48 26 91 -2 19 -8 23
-27 21 -32 -3 -51 15 -51 49 0 29 0 29 -64 29 l-65 0 -3 -37 -3 -38 -73 -3
c-56 -2 -74 0 -78 12 -3 8 4 76 16 150 12 75 20 143 17 150 -6 14 -100 27
-117 16z m240 -506 c0 -25 -5 -66 -10 -92 -6 -26 -15 -69 -21 -97 -6 -27 -22
-85 -36 -127 -30 -94 -38 -97 -121 -34 -90 69 -87 55 -52 212 45 200 32 184
145 184 l95 0 0 -46z M6687 2744 c-4 -4 -7 -42 -7 -85 0 -112 2 -111 -184
-107 l-151 3 -3 -369 c-2 -281 -5 -372 -15 -378 -6 -4 -43 -8 -80 -8 l-68 0 3
-62 3 -63 175 -1 c96 0 316 -2 488 -2 242 -2 312 -5 312 -14 0 -7 -22 -29 -50
-48 -27 -19 -49 -37 -49 -40 0 -3 68 -43 151 -90 83 -47 178 -102 210 -122 32
-21 61 -38 64 -38 10 0 124 81 124 88 0 8 -193 116 -342 192 -49 25 -88 51
-88 58 0 9 53 12 229 12 159 0 232 3 237 11 4 6 7 34 7 63 l0 51 -54 3 c-30 1
-64 4 -76 7 l-23 5 -2 373 -3 372 -151 -4 c-83 -2 -160 0 -172 3 -20 7 -22 14
-22 86 0 107 -2 110 -64 110 -29 0 -57 -5 -63 -11 -8 -8 -10 -35 -6 -79 9
-101 1 -110 -100 -110 -45 0 -87 4 -94 8 -8 5 -13 41 -15 97 l-3 90 -55 3
c-31 2 -59 0 -63 -4z m-12 -336 c3 -13 2 -66 -2 -118 l-8 -95 -89 -3 c-65 -2
-92 1 -98 10 -9 16 -11 212 -1 221 3 4 48 7 99 7 89 0 94 -1 99 -22z m339 6
c8 -20 8 -105 -1 -172 l-6 -53 -96 3 -96 3 -3 104 c-1 58 0 111 2 118 4 9 31
13 100 13 76 0 95 -3 100 -16z m347 4 c0 -7 3 -33 5 -58 2 -25 1 -73 -2 -108
l-6 -63 -101 3 -102 3 -3 104 c-1 58 0 111 2 118 7 18 206 19 207 1z m-690
-370 c12 -22 7 -217 -6 -238 -9 -14 -168 -13 -183 2 -13 13 -17 212 -6 242 5
13 23 16 95 16 81 0 89 -2 100 -22z m339 3 c16 -31 13 -226 -4 -240 -9 -8 -46
-11 -103 -9 l-88 3 -3 119 c-1 66 0 126 2 133 4 9 30 13 95 13 79 0 92 -2 101
-19z m350 0 c15 -29 13 -213 -3 -234 -10 -15 -27 -17 -107 -15 l-95 3 -3 119
c-1 66 0 126 2 133 4 9 31 13 100 13 84 0 97 -2 106 -19z M9067 2744 c-4 -4
-7 -208 -7 -454 0 -333 -3 -449 -12 -458 -7 -7 -25 -12 -40 -12 -15 0 -47 -4
-70 -10 -24 -5 -68 -14 -98 -19 -126 -23 -168 -30 -233 -42 l-69 -13 7 -60 c4
-34 9 -63 11 -65 2 -3 110 15 239 38 130 24 242 40 250 37 13 -4 15 -37 15
-191 l0 -185 65 0 65 0 0 199 c0 147 3 201 13 209 6 5 46 15 87 22 99 17 104
22 88 89 l-12 53 -55 -7 c-31 -4 -69 -8 -86 -9 l-30 -1 -5 440 -5 440 -55 3
c-31 2 -59 0 -63 -4z M9845 2728 c-3 -7 -6 -76 -7 -153 l-3 -140 -95 -5 -95
-5 0 -55 0 -55 95 -5 95 -5 0 -160 0 -159 -99 -25 -98 -26 5 -40 c3 -22 10
-52 15 -67 10 -25 13 -26 44 -17 52 17 102 30 118 32 13 2 15 -26 18 -191 l2
-192 -25 -10 c-15 -6 -53 -10 -86 -10 -32 0 -59 -4 -59 -8 0 -5 7 -32 15 -60
l16 -52 93 0 c80 0 98 3 127 23 56 38 59 49 59 303 0 181 3 234 13 243 8 6 41
20 75 30 100 32 102 34 96 89 -9 74 -5 72 -83 50 -101 -30 -101 -30 -101 102
0 147 2 150 95 150 l75 0 0 60 0 60 -73 0 c-43 0 -78 5 -85 12 -8 8 -12 57
-12 155 l0 143 -65 0 c-43 0 -67 -4 -70 -12z M10547 2734 c-4 -4 -7 -56 -7
-116 l0 -108 -170 0 -170 0 0 -65 0 -65 170 0 170 0 0 -110 0 -110 -122 0
c-68 0 -140 -3 -160 -6 -38 -7 -38 -7 -38 -54 0 -39 4 -50 24 -64 14 -8 27
-26 31 -38 27 -93 106 -232 189 -331 32 -38 38 -52 30 -65 -16 -25 -190 -113
-288 -146 -47 -15 -86 -30 -86 -32 0 -6 72 -114 76 -114 5 0 98 30 119 39 67
28 168 80 217 113 32 21 65 41 73 44 9 4 50 -17 101 -51 94 -62 231 -130 285
-140 33 -6 36 -4 69 47 19 29 35 57 35 61 0 4 -33 19 -73 33 -87 29 -191 80
-249 123 l-42 31 82 102 c91 114 133 181 175 284 45 109 46 119 14 140 -22 16
-53 20 -167 24 l-140 5 0 105 0 105 183 3 182 2 0 65 0 65 -179 0 c-131 0
-182 3 -187 12 -4 7 -8 58 -8 113 l-1 100 -65 3 c-36 2 -69 0 -73 -4z m295
-710 c26 -25 -181 -314 -224 -314 -9 0 -38 27 -65 60 -54 67 -155 239 -147
252 6 9 427 11 436 2z M8370 2705 c-91 -32 -293 -84 -392 -100 -21 -3 -39 -9
-41 -13 -3 -4 4 -27 14 -51 l19 -44 58 6 c31 4 76 9 100 13 l42 7 0 -106 0
-106 -127 -3 -128 -3 0 -60 0 -60 112 -5 c61 -3 114 -8 117 -11 19 -18 -130
-301 -229 -436 -15 -20 -14 -25 15 -82 18 -34 36 -61 40 -61 12 0 123 188 156
265 16 36 31 65 35 65 14 0 20 -94 19 -334 0 -138 0 -257 0 -264 0 -10 17 -12
63 -10 l62 3 3 320 c1 175 6 323 11 328 11 11 28 -8 80 -92 l44 -72 22 21 c12
12 30 36 40 54 l18 34 -101 118 c-56 65 -102 124 -102 131 0 19 44 26 131 20
93 -6 102 2 97 81 l-3 47 -115 5 -115 5 0 115 0 115 30 14 c29 14 78 27 143
38 17 3 32 11 32 18 0 11 -52 81 -78 106 -4 4 -36 -4 -72 -16z M5170 2591 c0
-52 2 -59 23 -65 12 -3 122 -6 244 -6 122 0 224 -4 227 -9 9 -14 -50 -89 -135
-173 l-78 -78 -3 -77 -3 -78 -165 -5 -165 -5 -3 -62 -3 -63 168 -2 168 -3 3
-250 c2 -226 1 -251 -15 -262 -11 -8 -52 -13 -115 -13 -54 0 -98 -1 -98 -3 0
-8 36 -104 44 -116 7 -11 31 -13 117 -8 115 6 153 19 188 63 20 26 21 38 21
298 0 198 3 275 12 284 8 8 60 12 169 12 l157 0 4 53 c2 28 2 58 0 64 -3 9
-50 13 -170 15 l-167 3 -3 58 -3 59 85 86 c110 113 216 245 216 271 0 5 -20
24 -44 41 l-45 30 -315 0 -316 0 0 -59z M8682 2597 c-18 -18 -32 -37 -31 -42
0 -6 32 -35 71 -65 39 -30 92 -79 117 -108 l45 -52 48 47 48 47 -43 44 c-67
70 -184 162 -204 162 -11 0 -33 -15 -51 -33z M8632 2192 c-17 -21 -28 -42 -24
-48 4 -5 32 -29 62 -54 30 -25 79 -67 108 -95 29 -27 57 -51 62 -53 5 -2 29
15 52 37 l43 40 -40 41 c-60 63 -197 170 -216 170 -10 0 -31 -17 -47 -38z
M6585 1604 c-98 -69 -160 -101 -327 -173 l-48 -20 55 -51 54 -52 63 28 c146
65 388 210 388 234 0 11 -103 70 -121 69 -8 0 -36 -16 -64 -35z"/>
</g>
</svg>
