<?xml version="1.0" standalone="no"?>
<!DOCTYPE svg PUBLIC "-//W3C//DTD SVG 20010904//EN"
 "http://www.w3.org/TR/2001/REC-SVG-20010904/DTD/svg10.dtd">
<svg version="1.0" xmlns="http://www.w3.org/2000/svg"
 width="2768.000000pt" height="900.000000pt" viewBox="0 0 2768.000000 900.000000"
 preserveAspectRatio="xMidYMid meet">
<metadata>
Created by potrace 1.16, written by Peter Selinger 2001-2019
</metadata>
<g transform="translate(0.000000,900.000000) scale(0.100000,-0.100000)"
fill="#000000" stroke="none">
<path d="M0 4500 l0 -4500 4454 0 4453 0 7 61 c3 34 6 151 6 260 0 161 3 199
14 199 7 0 71 4 142 10 145 11 225 23 334 52 251 65 432 141 629 263 103 64
321 237 411 327 267 264 547 642 751 1013 15 28 43 79 63 115 61 111 235 466
296 605 12 28 32 73 45 100 37 81 52 117 75 175 12 30 28 71 37 90 16 35 34
78 59 138 8 17 20 47 28 65 8 17 24 56 36 86 11 30 30 75 42 100 11 25 26 60
33 76 7 17 22 51 34 77 11 26 21 50 21 52 0 6 114 276 140 333 11 24 20 45 20
48 0 2 11 28 24 57 13 29 54 123 92 208 239 541 511 1015 719 1255 15 17 49
56 76 87 78 89 268 237 374 291 161 81 242 100 430 100 146 0 165 -3 293 -42
132 -40 328 -174 471 -320 226 -233 425 -540 662 -1026 100 -206 279 -596 279
-610 0 -2 14 -34 30 -70 17 -36 30 -68 30 -70 0 -2 13 -33 28 -67 16 -35 43
-100 61 -145 33 -83 37 -89 56 -75 34 24 685 962 685 987 0 3 22 39 50 79 27
41 58 89 68 107 11 19 55 93 99 164 139 227 170 279 195 325 14 25 34 61 45
80 11 19 29 51 40 70 11 19 34 59 52 88 17 29 31 55 31 58 0 3 8 18 19 32 10
15 37 63 61 107 24 44 46 85 50 90 4 6 29 51 55 100 26 50 65 121 87 158 24
42 36 73 31 78 -6 6 -55 -16 -124 -54 -63 -35 -179 -98 -259 -142 -188 -101
-282 -152 -410 -222 -25 -14 -51 -30 -57 -35 -14 -11 -20 -10 -84 29 -25 16
-161 97 -303 182 -281 169 -271 158 -186 204 43 23 85 46 218 118 31 18 80 44
107 59 84 46 533 289 635 342 52 28 100 54 105 58 6 4 51 29 100 55 50 26 115
61 145 78 133 72 159 87 235 127 44 23 103 55 130 70 28 15 91 49 140 75 50
26 128 69 175 95 47 26 120 66 163 89 123 65 226 121 311 168 43 24 82 43 86
43 4 0 10 -64 13 -142 12 -258 44 -934 102 -2131 20 -412 34 -751 32 -754 -3
-2 -90 46 -193 107 -103 62 -203 121 -223 132 -20 11 -40 24 -46 28 -5 4 -27
17 -47 29 -21 12 -55 30 -75 42 -62 35 -63 36 -63 113 0 73 -14 360 -34 705
-7 118 -15 196 -22 198 -5 2 -18 -11 -27 -29 -15 -31 -56 -105 -104 -188 -11
-19 -30 -52 -42 -72 -45 -80 -62 -109 -80 -140 -10 -18 -53 -94 -96 -168 -256
-444 -662 -1097 -845 -1360 -37 -52 -113 -162 -171 -245 -57 -82 -109 -157
-116 -165 -6 -8 -60 -80 -119 -160 -93 -125 -376 -485 -394 -500 -3 -3 -25
-30 -50 -60 -25 -30 -47 -57 -50 -60 -3 -3 -23 -25 -44 -50 -96 -111 -220
-245 -332 -360 -271 -280 -352 -359 -594 -579 -44 -40 -313 -265 -360 -301
-25 -19 -47 -37 -50 -40 -14 -15 -260 -196 -368 -270 -301 -206 -650 -413
-922 -547 -155 -76 -199 -97 -325 -153 -27 -12 -68 -30 -90 -40 -318 -143
-881 -326 -1262 -411 -24 -5 -62 -13 -85 -19 -24 -5 -70 -14 -103 -20 -33 -7
-78 -16 -100 -20 -22 -5 -71 -14 -110 -20 -38 -7 -86 -16 -105 -20 -19 -4
1556 -8 3500 -8 l3535 -1 -95 33 c-557 193 -1031 547 -1470 1097 -174 217
-384 539 -537 824 -99 184 -155 295 -151 305 2 4 44 52 94 106 50 55 149 165
219 247 70 81 130 147 133 147 4 0 47 -80 95 -178 392 -789 720 -1232 1201
-1619 70 -57 234 -155 361 -218 167 -82 340 -144 490 -176 105 -21 320 -48
393 -49 l42 0 0 -260 0 -260 4460 0 4460 0 0 4500 0 4500 -13840 0 -13840 0 0
-4500z M13815 5616 c-5 -2 -34 -12 -64 -21 -127 -39 -292 -193 -439 -412 -109
-161 -325 -563 -406 -753 -11 -25 -37 -83 -59 -130 -22 -47 -52 -113 -68 -147
-16 -34 -29 -64 -29 -67 0 -3 -13 -35 -30 -71 -16 -36 -30 -68 -30 -70 0 -3
-10 -27 -21 -53 -36 -81 -46 -105 -79 -187 -18 -44 -40 -98 -50 -120 -10 -22
-33 -76 -50 -120 -17 -44 -40 -98 -50 -120 -10 -22 -33 -76 -50 -120 -17 -44
-43 -104 -56 -133 -13 -29 -24 -55 -24 -57 0 -3 -9 -24 -19 -48 -11 -23 -56
-123 -99 -222 -294 -664 -529 -1092 -825 -1500 -135 -185 -320 -399 -468 -539
-53 -50 -89 -90 -82 -93 18 -6 408 71 598 118 274 69 575 162 740 229 11 5 74
29 140 55 66 26 135 53 153 61 17 8 47 20 65 28 230 99 586 282 807 416 119
72 429 277 505 334 557 416 904 738 1447 1339 18 20 17 24 -32 132 -10 22 -37
87 -60 145 -43 108 -52 130 -89 212 -11 26 -21 50 -21 53 0 2 -13 34 -30 70
-16 36 -30 68 -30 70 0 3 -10 27 -21 53 -21 46 -37 82 -65 150 -28 64 -42 98
-64 147 -50 111 -61 137 -81 183 -27 62 -192 390 -231 462 -212 384 -438 645
-609 703 -50 17 -109 28 -124 23z"/>
</g>
</svg>
