<?xml version="1.0" standalone="no"?>
<!DOCTYPE svg PUBLIC "-//W3C//DTD SVG 20010904//EN"
 "http://www.w3.org/TR/2001/REC-SVG-20010904/DTD/svg10.dtd">
<svg version="1.0" xmlns="http://www.w3.org/2000/svg"
 width="1557.000000pt" height="1557.000000pt" viewBox="0 0 1557.000000 1557.000000"
 preserveAspectRatio="xMidYMid meet">
<metadata>
Created by potrace 1.16, written by Peter Selinger 2001-2019
</metadata>
<g transform="translate(0.000000,1557.000000) scale(0.100000,-0.100000)"
fill="#000000" stroke="none">
<path d="M12345 14231 c-16 -10 -66 -37 -110 -61 -84 -45 -160 -86 -272 -146
-38 -20 -111 -60 -163 -89 -52 -29 -212 -116 -355 -193 -143 -76 -280 -150
-305 -164 -25 -14 -85 -47 -135 -73 -49 -27 -108 -58 -130 -70 -22 -12 -89
-48 -150 -80 -60 -32 -114 -61 -120 -65 -5 -4 -44 -25 -85 -47 -205 -110 -352
-190 -529 -287 -107 -58 -197 -106 -201 -106 -5 0 -10 -7 -13 -15 -4 -10 29
-35 116 -86 67 -39 139 -82 160 -95 21 -14 52 -33 70 -43 18 -10 85 -51 149
-90 65 -39 122 -71 127 -71 6 0 32 13 58 28 26 16 84 48 128 72 44 23 109 58
145 78 36 19 88 47 115 62 201 111 407 220 415 220 14 0 12 -11 -8 -45 -10
-16 -60 -106 -112 -200 -197 -360 -533 -935 -691 -1184 -118 -186 -484 -731
-579 -861 -155 -214 -181 -245 -191 -228 -4 7 -57 131 -117 273 -274 647 -442
988 -682 1375 -249 402 -567 676 -885 762 -68 18 -343 18 -410 -1 -138 -38
-214 -71 -310 -135 -153 -102 -235 -175 -349 -310 -205 -241 -362 -494 -566
-911 -131 -269 -121 -248 -224 -482 -70 -161 -109 -252 -318 -748 -44 -104
-93 -219 -108 -255 -15 -36 -51 -121 -80 -190 -29 -69 -72 -170 -97 -225 -25
-55 -55 -120 -66 -145 -42 -94 -248 -509 -293 -590 -41 -74 -94 -162 -218
-365 -17 -28 -71 -106 -120 -175 -373 -522 -751 -847 -1183 -1019 -224 -89
-434 -137 -653 -149 l-135 -7 -3 -316 -2 -316 127 -6 c464 -24 1167 14 1713
92 36 5 88 12 115 16 28 3 70 10 95 15 25 5 72 13 105 19 66 12 299 59 355 71
19 4 58 13 85 19 51 11 140 33 280 71 129 34 466 147 660 220 185 70 227 88
353 146 41 19 76 34 78 34 8 0 424 207 494 245 291 161 668 406 925 599 66 50
122 93 125 96 3 3 23 19 45 35 174 130 531 451 788 710 557 559 992 1100 1527
1895 230 341 568 899 957 1578 79 138 148 252 152 252 5 0 13 -93 20 -207 6
-115 16 -287 21 -383 6 -96 10 -216 10 -267 0 -50 3 -99 6 -107 4 -9 38 -35
78 -57 39 -23 91 -54 116 -69 217 -132 439 -260 449 -260 11 0 12 20 7 98 -3
53 -11 196 -16 317 -15 339 -36 760 -60 1245 -6 113 -15 302 -20 420 -6 118
-15 314 -21 435 -6 121 -14 285 -17 365 -8 159 -10 165 -67 131z m-4455 -2074
c175 -72 366 -291 583 -667 33 -58 211 -411 241 -480 16 -36 44 -98 63 -138
18 -39 33 -74 33 -77 0 -2 14 -34 30 -70 17 -36 30 -68 30 -70 0 -2 14 -34 30
-70 17 -36 30 -68 30 -70 0 -2 11 -28 24 -57 46 -102 85 -194 134 -318 28 -69
67 -163 87 -210 20 -47 41 -95 46 -107 7 -19 -7 -39 -104 -145 -314 -346 -558
-585 -892 -874 -217 -188 -622 -483 -900 -654 -219 -135 -647 -359 -850 -445
-49 -20 -112 -47 -140 -60 -27 -12 -66 -27 -85 -34 -19 -7 -44 -17 -55 -21
-115 -46 -463 -167 -550 -191 -335 -90 -335 -90 -625 -148 -113 -23 -215 -43
-227 -46 -44 -10 -23 21 68 105 79 73 245 257 363 403 88 109 321 454 414 615
40 68 72 124 72 126 0 2 21 41 46 87 148 267 367 736 574 1234 48 116 123 293
165 395 120 287 176 421 195 465 45 103 64 144 90 200 15 33 41 89 58 125 16
36 40 88 52 115 45 102 159 324 225 440 249 436 480 665 670 665 29 0 73 -10
105 -23z"/>
<path d="M9994 9193 c-69 -82 -170 -195 -223 -252 -53 -57 -97 -107 -99 -111
-6 -16 246 -487 318 -595 15 -22 46 -71 69 -110 40 -66 132 -199 225 -325 141
-191 404 -477 596 -645 113 -99 288 -225 440 -317 372 -224 811 -356 1248
-375 l142 -6 0 315 c0 359 9 328 -95 328 -86 0 -282 26 -380 51 -179 45 -288
85 -450 164 -418 202 -784 551 -1132 1075 -170 256 -249 395 -424 748 -56 111
-103 202 -105 202 -2 0 -60 -66 -130 -147z"/>
<path d="M1930 4481 c0 -1009 1 -1071 18 -1080 20 -11 231 -9 250 2 8 6 12 40
12 113 0 57 2 104 4 104 3 0 31 -26 63 -58 114 -114 252 -170 443 -179 121 -6
225 6 307 33 235 79 404 260 475 510 19 66 22 104 23 229 0 152 -5 184 -47
309 -79 231 -282 414 -526 473 -94 22 -286 22 -377 -1 -98 -25 -200 -77 -277
-141 -37 -30 -69 -55 -72 -55 -3 0 -7 181 -8 403 l-3 402 -142 3 -143 3 0
-1070z m890 219 c191 -30 350 -183 405 -390 19 -70 19 -217 0 -295 -43 -178
-174 -317 -354 -374 -58 -19 -230 -14 -297 9 -190 62 -314 210 -349 415 -12
69 -7 192 11 262 44 182 195 328 378 368 76 17 123 18 206 5z"/>
<path d="M11497 5445 c-8 -8 -29 -49 -47 -90 -17 -42 -76 -176 -132 -298 -55
-122 -147 -328 -205 -457 -58 -129 -137 -305 -175 -390 -39 -85 -108 -238
-153 -340 -46 -102 -94 -210 -108 -240 -85 -184 -97 -215 -93 -227 4 -10 58
-13 250 -13 l244 0 30 73 c17 39 55 132 86 206 30 74 60 139 66 145 8 8 151
10 488 7 262 -2 480 -5 485 -8 9 -5 46 -87 127 -278 68 -162 30 -145 320 -145
220 0 250 2 250 16 0 8 -49 122 -109 252 -60 130 -127 278 -149 327 -22 50
-63 139 -91 198 -28 60 -51 110 -51 112 0 2 -23 52 -51 112 -28 59 -68 146
-89 193 -47 105 -84 187 -120 265 -15 33 -38 83 -50 110 -12 28 -34 75 -47
105 -63 137 -72 158 -93 205 -60 134 -73 161 -83 167 -7 4 -119 8 -249 8 -194
0 -239 -3 -251 -15z m278 -530 c35 -81 44 -103 65 -155 12 -30 32 -78 46 -108
13 -29 24 -55 24 -57 0 -2 11 -28 24 -57 14 -30 34 -78 46 -107 11 -30 29 -73
39 -95 31 -68 51 -118 51 -127 0 -5 -143 -9 -320 -9 -240 0 -320 3 -320 12 0
17 267 657 301 721 14 26 26 21 44 -18z"/>
<path d="M13163 5453 c-18 -7 -19 -2033 -1 -2051 9 -9 76 -12 240 -12 l228 0
5 23 c3 12 4 477 3 1032 l-3 1010 -230 2 c-126 1 -236 -1 -242 -4z"/>
<path d="M5735 5288 c-3 -7 -6 -89 -7 -183 l-3 -170 -128 -3 -128 -3 3 -112 3
-112 125 -5 125 -5 5 -480 c5 -357 9 -490 19 -520 48 -145 129 -232 266 -286
52 -20 78 -23 200 -23 121 -1 149 2 210 22 38 13 83 33 100 45 16 11 31 21 32
22 4 2 -69 191 -78 199 -5 6 -31 -2 -66 -20 -52 -26 -68 -29 -153 -29 -89 0
-98 2 -140 30 -31 21 -54 48 -75 90 l-30 59 -3 424 c-2 234 -1 436 2 448 l6
24 218 2 217 3 0 110 0 110 -209 3 c-132 1 -214 6 -222 13 -10 8 -14 57 -16
183 l-3 171 -133 3 c-100 2 -134 -1 -137 -10z"/>
<path d="M6907 5294 c-4 -4 -7 -85 -7 -180 0 -203 16 -183 -150 -187 l-105 -2
0 -110 0 -110 128 -3 127 -3 0 -431 c0 -485 8 -568 64 -676 26 -49 96 -121
149 -150 148 -84 399 -86 559 -6 26 13 49 28 53 33 6 10 -59 189 -74 204 -4 4
-34 -5 -67 -20 -50 -23 -72 -27 -150 -28 -83 0 -94 2 -139 30 -35 21 -56 44
-74 80 l-26 50 0 455 0 455 215 5 215 5 3 113 3 112 -208 0 c-114 0 -214 4
-220 8 -9 6 -13 58 -15 182 l-3 175 -136 3 c-74 1 -138 -1 -142 -4z"/>
<path d="M4425 4949 c-126 -19 -269 -80 -365 -157 -143 -116 -227 -252 -271
-442 -20 -89 -16 -290 10 -389 57 -224 214 -412 423 -509 117 -54 191 -67 383
-67 192 0 266 13 383 67 88 41 233 154 232 182 -1 6 -21 34 -46 61 -25 28 -57
65 -71 83 -14 17 -30 32 -35 32 -6 0 -33 -21 -61 -46 -59 -53 -115 -83 -213
-115 -86 -29 -257 -31 -343 -6 -133 40 -241 120 -313 231 -41 63 -84 184 -70
198 4 4 287 9 627 10 l620 3 -2 115 c-2 114 -11 172 -40 260 -111 346 -457
546 -848 489z m238 -244 c93 -19 198 -77 250 -136 62 -71 113 -178 119 -249
l3 -35 -484 -3 -484 -2 6 50 c12 102 98 236 191 298 117 80 259 107 399 77z"/>
<path d="M8525 4950 c-181 -29 -351 -119 -466 -248 -153 -172 -220 -433 -175
-687 29 -165 93 -284 220 -411 173 -172 356 -234 651 -221 177 8 302 44 419
122 60 40 136 113 136 131 0 13 -139 174 -150 174 -3 0 -32 -22 -65 -50 -63
-54 -133 -91 -216 -117 -71 -22 -264 -22 -335 -1 -151 47 -271 144 -334 271
-23 46 -41 99 -43 122 l-2 40 623 3 622 2 0 104 c0 201 -61 382 -178 524 -77
94 -223 183 -362 222 -87 24 -256 34 -345 20z m215 -241 c129 -21 254 -101
322 -209 30 -48 68 -156 68 -196 l0 -24 -479 0 c-264 0 -482 4 -485 9 -8 13
21 115 48 170 32 61 117 155 170 186 107 62 230 85 356 64z"/>
<path d="M10512 4949 c-189 -18 -319 -85 -424 -219 l-27 -35 -3 75 c-1 41 -2
92 -3 112 0 20 -5 42 -11 48 -7 7 -55 10 -135 8 l-124 -3 -3 -764 c-2 -605 0
-766 10 -773 16 -10 249 -10 265 0 8 5 12 128 16 442 3 355 7 445 20 488 70
239 216 352 452 352 41 0 76 3 78 8 9 14 -8 265 -18 267 -5 1 -47 -1 -93 -6z"/>
<path d="M4682 2738 c-6 -6 -12 -26 -12 -42 0 -17 -7 -69 -16 -116 -8 -47 -18
-103 -22 -125 l-7 -40 -75 -5 -75 -5 3 -55 c4 -79 5 -80 62 -80 36 0 50 -4 50
-14 0 -15 -42 -202 -65 -290 -9 -33 -14 -65 -11 -72 2 -6 57 -53 120 -104 64
-51 116 -98 116 -104 0 -31 -144 -179 -237 -245 -18 -12 -33 -28 -33 -34 1 -7
19 -32 41 -56 l40 -45 37 20 c43 23 200 170 233 219 13 19 32 35 41 35 9 0 47
-34 84 -75 37 -41 70 -75 74 -75 4 0 26 23 49 50 28 33 40 56 37 68 -3 9 -42
53 -86 97 -92 91 -90 80 -41 218 33 91 51 174 72 335 12 83 15 92 34 92 33 0
45 20 45 77 l0 53 -34 0 c-33 0 -35 2 -38 38 l-3 37 -65 0 -65 0 -5 -35 -5
-35 -77 -3 c-43 -2 -78 0 -78 4 0 4 9 59 19 123 26 154 29 181 22 185 -3 2
-31 7 -61 10 -38 5 -59 3 -68 -6z m245 -474 c17 -45 -72 -409 -103 -421 -8 -3
-45 18 -84 47 -51 38 -70 58 -70 75 0 40 62 300 74 307 6 4 48 8 94 8 66 0 84
-3 89 -16z"/>
<path d="M6675 2738 c-3 -7 -6 -49 -7 -93 l-3 -80 -165 -5 -165 -5 -2 -360
c-1 -198 -3 -365 -3 -372 0 -8 -24 -13 -72 -15 l-73 -3 -3 -67 -3 -68 233 0
c128 -1 346 -1 485 0 138 0 254 -3 257 -8 3 -5 -17 -26 -45 -47 -27 -21 -48
-42 -47 -47 2 -5 28 -23 58 -40 136 -74 239 -135 292 -170 31 -21 64 -38 74
-38 13 0 90 48 128 81 13 11 -38 41 -349 205 -44 24 -80 46 -80 51 0 4 106 10
235 13 l235 5 3 62 c3 60 2 63 -23 69 -14 4 -43 4 -64 1 -21 -2 -43 -2 -50 2
-7 5 -12 118 -13 377 l-3 369 -172 3 c-199 3 -181 -8 -185 117 l-3 70 -65 0
-65 0 -5 -90 -5 -90 -89 -3 c-65 -2 -92 1 -98 10 -4 7 -8 50 -8 96 l0 82 -65
0 c-44 0 -67 -4 -70 -12z m-7 -408 c4 -146 8 -141 -96 -138 l-87 3 -3 118 -3
118 93 -3 93 -3 3 -95z m337 -20 l0 -115 -89 -3 c-65 -2 -92 1 -98 10 -9 15
-11 189 -2 213 5 13 21 15 98 13 l91 -3 0 -115z m350 0 l0 -115 -94 -3 c-69
-2 -97 1 -103 10 -9 15 -11 189 -2 213 5 13 22 15 103 13 l96 -3 0 -115z
m-701 -246 c13 -5 16 -26 16 -129 0 -142 9 -132 -111 -127 l-79 4 0 122 c0 68
3 126 7 129 8 9 146 9 167 1z m354 -131 c2 -94 0 -123 -10 -124 -56 -5 -174 5
-180 14 -10 15 -10 221 -1 231 4 4 48 5 98 4 l90 -3 3 -122z m352 2 l0 -124
-32 -6 c-18 -3 -64 -2 -103 2 l-70 8 -3 109 c-1 61 0 116 2 123 4 10 32 13
106 13 l100 0 0 -125z"/>
<path d="M9056 2735 c-3 -9 -6 -216 -6 -460 l0 -444 -37 -6 c-318 -54 -483
-86 -483 -94 1 -3 7 -33 14 -66 14 -67 9 -65 106 -46 166 31 385 71 392 71 4
0 8 -83 8 -184 0 -143 3 -186 14 -195 14 -12 105 -9 125 3 7 5 11 72 11 206 0
229 -15 200 115 223 l70 13 -2 44 c-4 83 -10 93 -46 86 -18 -4 -56 -10 -84
-13 l-53 -6 -2 439 -3 439 -66 3 c-54 2 -68 0 -73 -13z"/>
<path d="M9847 2743 c-4 -3 -7 -73 -7 -154 0 -171 6 -162 -108 -159 -37 1 -73
2 -80 1 -9 -1 -12 -18 -10 -63 l3 -63 95 -5 95 -5 3 -152 3 -152 -38 -10 c-21
-5 -65 -17 -97 -25 -33 -8 -62 -20 -66 -26 -8 -13 8 -110 20 -124 5 -4 30 -1
57 7 26 9 65 19 86 23 l37 6 0 -190 c0 -218 8 -202 -100 -202 -38 0 -71 -4
-74 -8 -2 -4 4 -35 15 -69 l20 -61 97 5 c181 11 185 18 190 330 3 160 7 235
15 241 7 5 41 19 77 31 95 31 92 29 84 100 -3 33 -9 61 -13 61 -3 0 -37 -9
-76 -20 -38 -11 -73 -16 -77 -12 -5 5 -7 62 -6 128 l3 119 70 3 c38 2 75 8 83
14 8 7 12 29 10 62 l-3 51 -60 3 c-114 4 -105 -8 -105 155 0 98 -4 147 -12
155 -13 13 -120 17 -131 5z"/>
<path d="M10545 2738 c-3 -7 -6 -60 -7 -118 l-3 -105 -167 -3 -168 -2 0 -65 0
-65 158 0 c86 0 163 -4 170 -8 9 -6 12 -35 10 -108 l-3 -99 -155 -3 c-85 -1
-157 -6 -160 -11 -3 -5 -3 -33 -1 -61 2 -40 7 -54 21 -57 10 -3 24 -19 30 -36
46 -120 148 -293 205 -347 14 -13 25 -29 25 -35 0 -11 -103 -76 -175 -110 -22
-10 -76 -31 -120 -46 -44 -15 -81 -33 -83 -39 -2 -6 4 -21 15 -33 10 -12 25
-34 33 -49 7 -16 22 -28 31 -28 46 0 268 101 357 162 25 17 51 31 57 31 6 0
44 -22 85 -49 86 -58 205 -117 273 -138 46 -14 48 -14 65 11 9 13 27 37 40 53
12 15 22 34 22 41 0 8 -30 24 -74 38 -115 36 -286 127 -286 152 0 6 28 42 62
82 33 39 82 104 108 143 44 68 120 237 120 268 0 8 -14 25 -32 37 -29 21 -41
23 -150 20 -166 -4 -158 -10 -158 109 0 80 3 99 16 104 9 3 92 6 185 6 l169 0
0 65 0 65 -172 0 c-95 0 -178 4 -185 8 -8 5 -13 45 -15 117 l-3 110 -68 3
c-48 2 -69 -1 -72 -10z m295 -725 c0 -37 -125 -218 -194 -282 l-26 -25 -31 30
c-62 58 -187 263 -174 284 4 6 92 10 216 10 192 0 209 -1 209 -17z"/>
<path d="M8315 2692 c-55 -19 -162 -47 -239 -63 -76 -15 -141 -31 -144 -33 -2
-3 4 -27 15 -53 l20 -48 49 3 c27 2 69 8 93 13 25 6 48 6 53 1 5 -5 7 -51 6
-103 l-3 -94 -128 -3 -128 -3 3 -67 3 -67 113 -3 114 -3 -7 -26 c-12 -49 -114
-246 -176 -340 l-62 -93 29 -60 c16 -32 35 -59 42 -59 17 -1 82 102 140 221
26 54 50 97 55 98 4 0 7 -132 7 -293 0 -215 3 -296 12 -305 16 -16 110 -16
126 0 9 9 12 96 12 330 0 175 4 318 9 318 5 0 32 -36 61 -80 29 -44 56 -80 59
-80 6 0 25 22 68 81 14 19 8 28 -119 178 -43 51 -78 96 -78 101 0 5 51 11 113
12 l112 3 0 65 0 65 -110 5 -110 5 0 119 0 120 97 25 c53 14 100 29 104 33 9
10 -84 118 -99 117 -7 -1 -57 -18 -112 -37z"/>
<path d="M5170 2585 l0 -65 242 -2 c161 -2 243 -7 245 -14 6 -18 -129 -175
-180 -209 -26 -16 -27 -21 -27 -101 0 -101 15 -93 -195 -97 l-150 -2 -3 -62
c-4 -76 -13 -72 193 -76 l150 -2 3 -241 c2 -215 1 -243 -14 -255 -12 -10 -48
-14 -116 -15 -55 -1 -101 -4 -103 -6 -3 -3 4 -23 15 -46 11 -22 20 -48 20 -57
0 -30 48 -38 153 -26 108 12 145 26 173 68 17 26 19 53 22 305 l3 278 167 2
167 3 0 65 0 65 -165 5 -165 5 -3 60 -3 61 83 85 c91 93 208 242 208 265 0 7
-19 27 -42 44 l-41 30 -319 0 -318 0 0 -65z"/>
<path d="M8687 2602 c-20 -21 -37 -43 -37 -49 0 -6 21 -27 48 -46 26 -19 78
-67 115 -106 38 -39 72 -71 75 -71 10 0 92 83 92 93 0 22 -224 217 -249 217
-4 0 -24 -17 -44 -38z"/>
<path d="M8632 2197 c-18 -18 -32 -38 -32 -44 0 -6 34 -39 76 -73 42 -35 97
-82 123 -106 l46 -42 30 25 c51 43 58 59 41 86 -31 47 -206 187 -234 187 -10
0 -32 -15 -50 -33z"/>
<path d="M6573 1596 c-78 -53 -324 -176 -353 -176 -19 0 -9 -16 39 -64 57 -56
58 -56 168 -4 119 56 258 140 338 203 22 18 26 14 -53 60 -23 14 -50 25 -60
24 -9 0 -45 -19 -79 -43z"/>
</g>
</svg>
